<?xml version="1.0" standalone="no"?><!DOCTYPE svg PUBLIC "-//W3C//DTD SVG 1.1//EN" "http://www.w3.org/Graphics/SVG/1.1/DTD/svg11.dtd"><svg t="1706665427526" class="icon" viewBox="0 0 1024 1024" version="1.1" xmlns="http://www.w3.org/2000/svg" p-id="4638" width="24" height="24" xmlns:xlink="http://www.w3.org/1999/xlink"><path d="M481.898667 258.730667c-16.938667 38.72-25.472 79.36-30.741334 120.448-3.157333 24.448-4.885333 45.930667-6.613333 67.605333-1.28 15.872-2.56 31.850667-4.416 49.194667-3.968 36.949333-10.304 75.861333-26.986667 109.248-8.064 16.192-22.570667 35.754667-47.722666 41.472-25.258667 5.76-45.824-5.930667-57.578667-15.189334-22.912-18.026667-42.197333-49.984-56.405333-77.034666-3.84-7.317333-7.573333-14.784-11.157334-22.250667-10.730667 55.466667-9.365333 124.693333 33.365334 191.253333 48.512 75.562667 120.064 112.896 190.656 125.184 72.277333 12.586667 138.901333-1.813333 173.930666-23.744 92.757333-58.069333 166.058667-177.706667 110.08-311.509333a425.770667 425.770667 0 0 1-24.746666-52.8c-5.717333 15.573333-12.8 31.616-22.058667 44.565333-6.250667 8.746667-15.274667 18.730667-28.096 25.429334-13.973333 7.296-29.866667 9.301333-45.76 5.333333-52.117333-13.056-84.650667-53.162667-104.64-94.933333-20.053333-41.898667-30.784-91.733333-36.629333-137.344a823.552 823.552 0 0 1-4.48-44.928z m290.005333 47.829333v0.064l0.085333 0.64 0.362667 2.88a582.101333 582.101333 0 0 0 10.069333 52.757333c8.106667 33.898667 21.269333 75.349333 41.301334 110.506667l1.216 2.112 0.96 2.24c79.616 186.069333-26.730667 347.093333-142.378667 419.477333-56.469333 35.349333-145.429333 50.88-233.856 35.498667-90.090667-15.701333-184.362667-64.277333-247.829333-163.157333-59.306667-92.416-58.773333-187.818667-44.501334-257.813334a436.650667 436.650667 0 0 1 26.773334-84.970666 374.101333 374.101333 0 0 1 15.296-31.36l1.152-2.005334 0.362666-0.64 0.128-0.213333 0.064-0.085333v-0.021334c0.021333-0.021333 0.042667-0.042667 36.629334 21.888L201.173333 392.426667l46.933334-78.357334 29.952 86.293334 0.042666 0.106666 0.170667 0.469334 0.704 2.005333 2.837333 7.786667c2.496 6.741333 6.101333 16.32 10.581334 27.52 9.045333 22.656 21.290667 51.2 34.602666 76.522666 6.570667 12.501333 12.672 22.762667 18.026667 30.784 4.586667-15.829333 7.744-35.114667 10.261333-58.666666 1.322667-12.245333 2.538667-26.858667 3.84-42.517334 2.005333-24.405333 4.245333-51.370667 7.402667-76.053333 11.221333-87.402667 37.546667-187.370667 128.085333-271.573333l79.658667-74.090667-8.064 108.48v0.128l-0.042667 0.554667-0.149333 2.474666a925.098667 925.098667 0 0 0-1.365333 46.272c-0.128 30.506667 1.088 71.04 6.4 112.213334 5.333333 41.685333 14.528 81.28 28.949333 111.36 11.072 23.146667 23.338667 37.013333 36.266667 44.202666 3.242667-6.464 6.997333-15.872 11.306666-28.842666 3.797333-11.413333 7.210667-22.890667 10.88-35.264 2.474667-8.32 5.077333-17.024 7.978667-26.368 6.72-21.653333 14.698667-45.205333 24.896-65.664l64.64-129.450667 15.936 143.786667v0.021333zM335.253333 569.813333l0.213334-0.32a1.877333 1.877333 0 0 1-0.213334 0.32z m25.984-4.864a1.92 1.92 0 0 1 0.277334 0.170667l-0.277334-0.170667z" p-id="4639" fill="#000000"></path></svg>