<?xml version="1.0" standalone="no"?><!DOCTYPE svg PUBLIC "-//W3C//DTD SVG 1.1//EN" "http://www.w3.org/Graphics/SVG/1.1/DTD/svg11.dtd"><svg t="1706665728990" class="icon" viewBox="0 0 1024 1024" version="1.1" xmlns="http://www.w3.org/2000/svg" p-id="10538" xmlns:xlink="http://www.w3.org/1999/xlink" width="24" height="24"><path d="M492.4 1024c-2.8 0-5.6-0.3-8.4-1-16.6-3.9-28.3-18.7-28.3-35.8V600.4H257.1c-12.8 0-24.8-6.7-31.4-17.7-6.7-11-7.1-24.6-1.2-36L499 19.8c7.8-15 24.8-22.8 41.3-18.7 16.4 4.1 28 18.8 28 35.7v362.3h198.5c12.7 0 24.5 6.6 31.2 17.4 6.7 10.8 7.3 24.3 1.7 35.7l-274.5 551.4c-6.2 12.7-19.1 20.4-32.8 20.4zM317.7 526.9h174.7c20.3 0 36.7 16.4 36.7 36.7V831l178.4-358.5H531.6c-20.3 0-36.7-16.4-36.7-36.7v-249L317.7 526.9z" p-id="10539" fill="#000000"></path></svg>