<?xml version="1.0" standalone="no"?><!DOCTYPE svg PUBLIC "-//W3C//DTD SVG 1.1//EN" "http://www.w3.org/Graphics/SVG/1.1/DTD/svg11.dtd"><svg t="1706669165305" class="icon" viewBox="0 0 1024 1024" version="1.1" xmlns="http://www.w3.org/2000/svg" p-id="49863" xmlns:xlink="http://www.w3.org/1999/xlink" stroke="#000" stroke-width="20" width="24" height="24"><path d="M669.696 876.544c-60.416 0-114.688-23.552-159.744-67.584-111.616-111.616-207.872-114.688-254.976-68.608l-4.096 4.096c-25.6 26.624-92.16 97.28-159.744 43.008C30.72 739.328 64.512 561.152 156.672 440.32c73.728-98.304 198.656-167.936 326.656-181.248 110.592-11.264 215.04 19.456 292.864 88.064 185.344 159.744 151.552 354.304 106.496 423.936-30.72 46.08-106.496 95.232-190.464 103.424-8.192 2.048-15.36 2.048-22.528 2.048zM327.68 671.744c59.392 0 133.12 30.72 210.944 108.544 41.984 41.984 92.16 60.416 149.504 55.296 75.776-7.168 139.264-54.272 159.744-86.016 38.912-59.392 66.56-228.352-98.304-370.688-89.088-77.824-191.488-84.992-261.12-77.824-117.76 12.288-232.448 75.776-299.008 164.864-90.112 118.784-103.424 265.216-72.704 289.792 31.744 25.6 64.512 3.072 104.448-39.936l4.096-5.12c25.6-24.576 60.416-38.912 102.4-38.912z" p-id="49864"></path><path d="M894.976 616.448c-4.096 0-8.192-1.024-12.288-4.096-9.216-7.168-11.264-19.456-4.096-28.672 65.536-86.016 46.08-219.136-44.032-309.248-98.304-98.304-245.76-110.592-328.704-27.648-11.264 11.264-21.504 25.6-30.72 40.96-5.12 10.24-18.432 13.312-27.648 8.192-10.24-5.12-13.312-18.432-8.192-27.648 10.24-18.432 22.528-35.84 36.864-49.152 99.328-99.328 272.384-86.016 386.048 27.648C967.68 350.208 989.184 505.856 911.36 608.256c-4.096 5.12-10.24 8.192-16.384 8.192z" p-id="49865"></path><path d="M900.096 348.16c-4.096 0-8.192-1.024-12.288-4.096-9.216-6.144-11.264-19.456-5.12-28.672 35.84-51.2 48.128-100.352 29.696-118.784-16.384-15.36-62.464-10.24-118.784 29.696-9.216 6.144-22.528 4.096-28.672-5.12-6.144-9.216-4.096-21.504 5.12-28.672C840.704 143.36 906.24 133.12 942.08 167.936c34.816 34.816 25.6 100.352-25.6 172.032-4.096 5.12-10.24 8.192-16.384 8.192zM370.688 847.872c-79.872 0-155.648-21.504-200.704-54.272-9.216-7.168-11.264-19.456-4.096-28.672 7.168-9.216 19.456-11.264 28.672-4.096 67.584 50.176 219.136 67.584 321.536 15.36 10.24-5.12 22.528-1.024 27.648 9.216s1.024 22.528-9.216 27.648c-50.176 23.552-107.52 34.816-163.84 34.816zM188.416 551.936c-2.048 0-3.072 0-5.12-1.024-5.12-3.072-7.168-9.216-4.096-13.312 28.672-55.296 70.656-102.4 125.952-138.24 5.12-3.072 11.264-2.048 14.336 3.072 3.072 5.12 2.048 11.264-3.072 14.336-52.224 33.792-92.16 77.824-119.808 130.048-1.024 3.072-4.096 5.12-8.192 5.12zM352.256 394.24c-4.096 0-7.168-2.048-9.216-5.12-3.072-5.12-1.024-11.264 4.096-14.336 8.192-5.12 17.408-9.216 29.696-14.336 5.12-2.048 11.264 0 13.312 6.144 2.048 5.12 0 11.264-6.144 13.312-11.264 4.096-19.456 8.192-27.648 12.288-1.024 2.048-2.048 2.048-4.096 2.048z" p-id="49866"></path></svg>